<svg width="866" height="203" viewBox="0 0 866 203" fill="none" xmlns="http://www.w3.org/2000/svg">
<path d="M359 84V0H383V36H419V0H443V84H419V48H383V84H359ZM460.76 84V24H472.76V12H484.76V0H520.76V12H532.76V24H544.76V84H520.76V60H484.76V84H460.76ZM484.76 48H520.76V24H508.76V12H496.76V24H484.76V48ZM562.52 84V0H634.52V12H646.52V48H634.52V60H586.52V84H562.52ZM586.52 48H622.52V12H586.52V48ZM664.28 84V0H736.28V12H748.28V48H736.28V60H688.28V84H664.28ZM688.28 48H724.28V12H688.28V48ZM802.04 84V48H790.04V36H778.04V0H802.04V36H826.04V0H850.04V36H838.04V48H826.04V84H802.04ZM389.125 201.938V186.875H374.062V171.812H359V126.625H374.062V111.562H389.125V96.5H464.437V111.562H404.187V126.625H389.125V171.812H404.187V186.875H434.312V156.75H419.25V141.688H464.437V201.938H389.125ZM486.73 201.938V126.625H501.792V111.562H516.855V96.5H562.042V111.562H577.105V126.625H592.167V201.938H562.042V171.812H516.855V201.938H486.73ZM516.855 156.75H562.042V126.625H546.98V111.562H531.917V126.625H516.855V156.75ZM614.46 201.938V96.5H644.585V111.562H659.647V126.625H674.71V111.562H689.772V96.5H719.897V201.938H689.772V141.688H674.71V171.812H659.647V141.688H644.585V201.938H614.46ZM742.19 201.938V96.5H847.627V111.562H772.315V141.688H832.565V156.75H772.315V186.875H847.627V201.938H742.19Z" fill="#0D0D0D"/>
<path fill-rule="evenodd" clip-rule="evenodd" d="M33.9331 169.167H305.398V33.8333H33.9331V169.167ZM186.632 0H305.398H339.331V33.8333V169.167V203H305.398H33.9331H0V169.167V33.8333V0H33.9331H152.699H186.632ZM237.532 118.417H271.465V84.5833H237.532V118.417ZM186.632 118.417C195.998 118.417 203.599 110.838 203.599 101.5C203.599 92.162 195.998 84.5833 186.632 84.5833C177.267 84.5833 169.666 92.162 169.666 101.5C169.666 110.838 177.267 118.417 186.632 118.417ZM67.8663 84.5833H84.8328V67.6667H118.766V84.5833H135.733V118.417H118.766V135.333H84.8328V118.417H67.8663V84.5833Z" fill="#0D0D0D"/>
</svg>
