<svg width="492" height="440" viewBox="0 0 492 440" fill="none" xmlns="http://www.w3.org/2000/svg">
<path fill-rule="evenodd" clip-rule="evenodd" d="M49.1 169.167H441.9V33.8333H49.1V169.167ZM270.05 0H441.9H491V33.8333V169.167V203H441.9H49.1H0V169.167V33.8333V0H49.1H220.95H270.05ZM343.7 118.417H392.8V84.5833H343.7V118.417ZM270.05 118.417C283.602 118.417 290.5 110.838 290.5 101.5C290.5 92.162 283.602 84.5833 270.05 84.5833C256.498 84.5833 251 92.162 251 101.5C251 110.838 256.498 118.417 270.05 118.417ZM110.5 84.5833H131V67.6667H165V84.5833H186V116.5H165V135.333H131V116.5H110.5V84.5833Z" fill="#0D0D0D"/>
<path d="M0 307V223H24V259H60V223H84V307H60V271H24V307H0ZM101.76 307V247H113.76V235H125.76V223H161.76V235H173.76V247H185.76V307H161.76V283H125.76V307H101.76ZM125.76 271H161.76V247H149.76V235H137.76V247H125.76V271ZM203.52 307V223H275.52V235H287.52V271H275.52V283H227.52V307H203.52ZM227.52 271H263.52V235H227.52V271ZM305.28 307V223H377.28V235H389.28V271H377.28V283H329.28V307H305.28ZM329.28 271H365.28V235H329.28V271ZM443.04 307V271H431.04V259H419.04V223H443.04V259H467.04V223H491.04V259H479.04V271H467.04V307H443.04Z" fill="#0D0D0D"/>
<path d="M30.125 424.938V409.875H15.0625V394.812H0V349.625H15.0625V334.562H30.125V319.5H105.438V334.562H45.1875V349.625H30.125V394.812H45.1875V409.875H75.3125V379.75H60.25V364.688H105.438V424.938H30.125ZM127.73 424.938V349.625H142.793V334.562H157.855V319.5H203.043V334.562H218.105V349.625H233.168V424.938H203.043V394.812H157.855V424.938H127.73ZM157.855 379.75H203.043V349.625H187.98V334.562H172.918V349.625H157.855V379.75ZM255.46 424.938V319.5H285.585V334.562H300.648V349.625H315.71V334.562H330.773V319.5H360.898V424.938H330.773V364.688H315.71V394.812H300.648V364.688H285.585V424.938H255.46ZM383.19 424.938V319.5H488.628V334.562H413.315V364.688H473.565V379.75H413.315V409.875H488.628V424.938H383.19Z" fill="#FDFDFD"/>
</svg>
